<svg xmlns="http://www.w3.org/2000/svg" viewBox="0 0 85.98 93.93" enable-background="new 0 0 85.98 93.93"><g><path d="m 42.92 39.65 c -4.52 0 -8.21 3.68 -8.21 8.2 c 0 4.53 3.68 8.21 8.21 8.21 s 8.21 -3.68 8.21 -8.21 c 0 -4.52 -3.68 -8.2 -8.21 -8.2 Z"/><path d="m 56.59 25.25 h -27.34 c -4.36 0 -7.91 3.55 -7.91 7.91 v 27.34 c 0 4.36 3.55 7.92 7.91 7.92 h 27.34 c 4.36 0 7.92 -3.55 7.92 -7.92 v -27.34 c 0 -4.36 -3.55 -7.91 -7.92 -7.91 Z m -13.67 36.82 c -7.84 0 -14.21 -6.38 -14.21 -14.21 c 0 -7.84 6.38 -14.21 14.21 -14.21 c 7.84 0 14.21 6.38 14.21 14.21 s -6.37 14.21 -14.21 14.21 Z m 14.67 -25.49 c -1.85 0 -3.36 -1.51 -3.36 -3.36 s 1.51 -3.36 3.36 -3.36 s 3.36 1.51 3.36 3.36 c 0 1.86 -1.51 3.36 -3.36 3.36 Z"/><path d="m 85.93 31.97 c -0.01 -6.11 -3.28 -11.76 -8.58 -14.81 l -25.88 -14.88 c -5.3 -3.05 -11.82 -3.04 -17.11 0.03 l -25.83 14.97 c -5.29 3.06 -8.54 8.72 -8.53 14.83 l 0.05 29.85 c 0.01 6.11 3.28 11.76 8.58 14.81 l 25.88 14.88 c 5.3 3.05 11.82 3.04 17.11 -0.03 l 25.83 -14.97 c 5.29 -3.07 8.54 -8.72 8.53 -14.83 Z m -15.42 28.54 c 0 7.68 -6.24 13.92 -13.92 13.92 h -27.34 c -7.68 0 -13.92 -6.24 -13.92 -13.92 v -27.35 c 0 -7.68 6.24 -13.92 13.92 -13.92 h 27.34 c 7.68 0 13.92 6.24 13.92 13.92 Z"/></g></svg>